<mxfile host="65bd71144e">
    <diagram id="YFRnd_0XgTuvhHtCZtaK" name="Page-1">
        <mxGraphModel dx="1386" dy="722" grid="1" gridSize="10" guides="1" tooltips="1" connect="1" arrows="1" fold="1" page="1" pageScale="1" pageWidth="850" pageHeight="1100" math="0" shadow="0">
            <root>
                <mxCell id="0"/>
                <mxCell id="1" parent="0"/>
                <mxCell id="2" value="" style="shape=image;verticalLabelPosition=bottom;labelBackgroundColor=default;verticalAlign=top;aspect=fixed;imageAspect=0;image=data:image/png,iVBORw0KGgoAAAANSUhEUgAAAnUAAALjCAYAAAB0yPMKAAAgAElEQVR4nOzdfVzdd33//ychhCQ1pxc5aWNJ54CjHLRITAtsSzs1F2bLd1KQWtuBR4xzW2/NqtvXb48g6BwMdpxuWuvqrjI8wlqzIshcNKaJm8pPOdQYhhsH5cJqY2sC1Z60uSJwfn+cq885HK4PnMOHx/1249ac87l6HRraJ+/LtO3W2/wCAADAqrYu2QUAAABg6Qh1AAAAJkCoAwAAMAFCHQAAgAkQ6gAAAEyAUAcAAGAChDoAAAATINQBAACYAKEOAADABAh1AAAAJkCoAwAAMAFCHQAAgAkQ6gAAAEyAUAcAAGAChDoAAAATINQBAACYwPpkFwAAa93U1q3yb9kif+YG+TMz5d+wQWnr+J0bWAl+v7Tu6hXpyhWlXbkivXJR6efOJbusRSHUAcAKm3rVdZp8/Rs0+epXa2r7LVJGRuDAxFWlTU4o7dq15BYIrDGT6eul9PXyr18vrUuXJKU9/7zSX3hB671erRt/MckVzk/adutt/mQXAQBrwZTVqok779CkzSZNXNX6yxeUPnlZ6Vcvat21K8kuD4Ak/7r1upa5WZMZmzW54VXyb9iodc89p4zTp5X+058lu7xZEeoAYAVcs+Xq6tv2K+3aNW24/KLWv/JLpfmnkl0WgNmkpWlio0UTm27S1MbrtP6ZZ7Thez3JrmpGhDoAWGYTJcWaKCrS+lde1MaXfp7scgAswpUt2zSx5RalDw0p8+vHk11OXIzEBYBlNFFwuyaKipTpe55AB6ximRfOa+P4TzSZk62re9+a7HLiItQBwDKZ2r5dV+++Wxm+Xyjj5fFklwNgidZfeVmbfvWcJuz5upafn+xypmH2KwAsh7Q0XXnbPq2/9JIyXz4vSfrgG39X27beoIyM9Bkvu3jxil6+elmf9Pz7SlUKYAHSL1/Qhgsv6Oqb36x1oyNadzl1JjkR6gBgGVx7za/J/6ot2njOG/X+3SW3y3rT9TNeN/Djn+q7fQPLXR6AJch8eVzXMq/Xtdtv14Znvp/scsLofgWAZTBxxx1Kv/RLpU0xwxUwo4zLv9K1nTvlT0+dKJU6lQCASfg3bZT/1a9W5sXpC5ZOTEzo6tWrwS/jnwOvr127Jr+fRQmAVJdx8ZdSxnpNZmUlu5Qwul8BIMEmb71VaZcvat3E9LE2V65cldv9RbW3PzXtWEXFvdpVfDehDlgF0vx+pb/ykqZefauUIosSJy3Usdch1hIz7S2IuU1u3651E5fiHrt85apuvvkW3XHHndOO3XzzLbo6MUGoA1aJdf4JTd66PdllhK1YqDPudahXb9fU+sCjN6X7tSlDum5DutLXpa1UOcCK8vv9euXKlC5d8+vypDTpD/xdX417C2JufutNSvdPxD129epVFbyxUG8s3BlI+2lpUf987oUXCXXAKpF+7bImbrol2WWELXuoM+51uDHdr5LX3qA3vvYm2W/botu2bVruxwMp6ZcvT+h/f3pBfUNb5fnfW/XSm960avYWxNz8m6/TumvxW+quXLmqjODA6jRJxviWJtFSB6wiaZMTUuaGZJcRtqyhbvK1Nl19235ZNq3XvW+5TfvvuFmZ6+liBW58VYZ2v/4m7X79Tfrjt0vd/zOuL53M0NkdO5R5+vtK//++l+wSsRQbM5V2+eW4h65cuaL0tGkNdOF/TkxMyD9FqFtp7/6jT6gmd3OcIy+o45FGfUSSVKWvfuI3lBP1XiJU6auf+HX1JfSeWAlp/klpXbqmMjK0biJ+6/xKWrZQF9rr8M2336QPVrx2uR4DrHrr0qS7b9+qu2/fqqPfOqsnJK2//npt+Fpq7i2Iufk3ZEqX4i9l8qNnzylNMw81mfL7aalLKdtV/ok6adkCVyQo9i3L/bGspiYlSf7Nm6WXXkpyMcsU6vw736iJoiK973deo98rSZ0BhECqu++3s2S79Tq5ngz8Buj/+tPJLgmLkbFBaXGC2af/+2tJKAYL4Rt+Sr/x9/8ZfPUWtXz8XhVvsijrLknfiXPBfXX63zuN/5+L37LnGbaoONQSeO57ev0nWw3HpUB4fEyFzxzW7x1dpg+HhFsX+jnfkJHcQoIS3hc6uW2bLu2+S7+/ZweBDliEXbYb5Lzfrpdtr0vJvQUxP37R2mZ6d31A37sz9v9z21X+oapp7xUbu3Zv/g199b7lLg4rKi01JnomvKXO/38OqPh11+uddwcW4/v+534+r70OleFX7v0zb50DrCW7bNfr3XtvU9vUm5U+PKy0q1eTXRKwJlhy79X/fuLe6DcvndXJeK103/mMfsP4/l0f0PdKXyvLlq16t6QvGg6NBFvg/vJDj6n8Zsl641skter3HtEyjdPDWpTQUDf5ml/T5Jbr9YF7Xxf1/nz2OuwfGklkKcCqV3FXlk70vqAXCwqU8f3U2VsQWFMu/VjNH/tMVECbztiNGs8L6gt2qX7kpy+o/GZ6sbA8EhrqpoqL9JadVm3eMHOrHID5u+fuHTry4i75z/xAaZPsIQost+gxdXMItcxd+rGaHzmsL4ZeL2+JwIwSNqbOv2mjJm7ZrrLfunXaMfY6BBZnT+E2pWVkaGrHjmSXAiDGu9+QJYsk38/7Ai15t24h0CGpEtZSN/nqW3V9xpR2WKcvKMxeh8DiZGas0+uzNul/btmu9Gd/muxyAMQRdxzeggVmv+5dSEshECNhLXWTr94uW9aWuMeMex3GfrHXITC71792q9J+LSvZZQCI8cW/PyaPYeOQkWcOq+OcpE1Z2nvXfO/Sqi8NX1yG6rAWpW233paQNDV1b7nurSxRxV3R3a/f/9zP9Rtveq0s122KWjrd7/crzbDX4U/Pn1de1dZElAKYyumhX8nV8t9a//f/lOxSME8XDz+kjeeHtH7icrJLAbDMXr71dmUePar0c+eTXUriul/TLa/SzTdkxj125cpVXYq716FfaUqjpQ6YxbYbMjWRkbH8GzUDAFa1xHW/ZmRoc2b82125ckWXLl3W5cuXdTH4z8DrK7p46TJ7HS7Ks+q680N65M6v6Nmo93165k8+pEfu/Ec9M5ak0pBQmzPXya91msog1gEAZpaw/0tMpG/Qxsz4S5nMZ6/DDRsTvrkFYAqbM4M/phs3SRMXklsMACBlJW7267p0bYzTknDHQ9OXOMFK8+mZP/kLHf1u5J27/uWTKi2IvL7w7/+oho8PBl/l6b6vv193WqOPve6Bu6Unvq0fxRzH8toUWvcxc6N0gVAHAIgvoc1jfrE4aip69lPRgU6SvvPeSPdsdKCTpEEd/Z3Ybl3pR098Wz+SpN/cqTwC3Yrz05gNAJgFg3TWjJla13wa/MagpLv10DP36DWS1P8VPfLeb+vEv79Vf/B2w1Kav/ku1X+2SPEXrgEAAMlEqFsDXvO2QLfp0d/5kALbDxoCnH6pn39Xkr6tz9357ajrfvSjX0qG9dFf97Y8Ah0AACmKDp21oOAefeKZT6r+Y3nBN76tz935IXX1z3HdT86JEVwAAKwOtNStWjfq1t+U9N2YbtL+bwbHz92sbTFdrVve/n594u0Kd69+5xvPqrQgdB9j6100gh0AAKmPULdqWZT3tjzpu4P60cf/Qo98PObwAzuDAW36zNeQu94WOCNwn+ndr7EzZAEAQOoi1K1iW97+fn3i1wOtbkav+9hHDRMcLLrzsx+VYoLd6z720XBg2/L296te0TNgjccBLIw/Tbq2+SZNTV1LdikA1hBC3WpXcI8+8cw9c5xk0Z2f/aTunOWMcNfsAo8BmC7Nd0FTE9LUtdTYKWfqxhu1zueTJieTXQpgPukXlZYiu2IR6gAg0bZsUUaKbPAtSRcPP6SMk6dSph7ATC4efkj+dTPvmrWSmP0KAABgAoQ6AAAAEyDUAQAAmAChDgAAwAQIdQAAACZAqAMAADABQh0AAIAJEOoAAABMgFAHAABgAgnbUcKfJn3jmXN6ZsuvEnVLAAAAzFPCQt36l19W93cuaN1UauwteHHTq7Tx8kWt808luxRgydLXb0yZvQUBAKkpYaFu8rpXafLoUSlF9hacOvyQJv/j6ylTD7AUk4cf0voU2VsQAJCaGFMHACuuQceG+uWN8+Vpqwqf5WjrnvaeVCX36eD5p4/IkcCq4j9Pkqsr8LzjDfO/WfUReZahxrmEPsMxV/TraV8rXBewEgh1AJBCLCXO6aEqrEru004VWyT5etW065DcK1ncQrQcUrGtQPZUrdFSpNqhLjUnuw4ggQh1AJA0o+qwFcge+moflSRZrHlxzk2lQBdqaeyS29gSZmzJi9dSF3ov5trYVrVIqA21SkaHr+jWt265q+eu2NfjinyfbS55fJKUrfKFtD4CKY5QBwApLy+FAp1RtopLLJGXuWXhgDZdg47VFSlydsy18+Ro61Zt1HUWFdcttMWtVY5He+WTpG1ZdMPCNAh1AJA02So3jvOqyJYkjZypjzrLUlIWCHSSZMnTvnm0TK2UkfZA61fHcOC1dccMXceuQuVIgVAa1Vq2EFXal29RVAtn+6ikbO2dsct6Bi1nNSZJFqvyF1oGkKIIdQCQQkbaC3TQGefAcKeaenySLCp+OFUG+Y+qL1hrzZnRWc907NgqSfINnAq2Mrbq6YGFpro8WS1SVBgOBuH4XdbA2pKwJU0AAAs1qg5bqWrmOm24U/YD9ZIGte+0U8WWIh1uq5K7snUFakymUIibh4V2o1ZnySpJvjENLLguIDXRUgcAKc43Nhj8U6scJ4KTKUruS/jMTfdz43HuXSX3/uyYOpZw7/w9wfDVoPtnGFMXbnULddmGDWrMJ02bYLKIWbbNDwTG90VaDoHVj1AHAKuJ8+jyzdx09mlEwXuHx/oFJ2jIJ++JJbQMhu5tKVLtUL+8Q2UxgS0S/JRbFtW1GhHqso0Zi2iYQTsTS4kz6vzyXEka1UnTt3ZiLSHUAcCqYpi5Oets08Wo18G4ExhG1WHbLUfLEu/dGKxbkny96uiJeZCzNDzhQpJ8PZ3TanFX7g6OLTSe54o/DnE2vl41zafrG1hF0rZbb0vIhpIXDz+kzKNHlZ4i23KlWj3AUvD3eXVJtX9f86knIyNDmzZvWrGafC/5wsuThCaHWK5f+BIniTB5bVKvvPJKUp6N1S+Vft6ZKAGsQtnZv66PN35UjspDyS4FJlFxb7n+vKF+7hMTxG4rmPae5/vdK/Z8ox/+8H90b9n9SXk2kEgrGOoadCzOGAop0HReHBzXEPrNzfjecq6kHv95Cux1WJFtmHU2D9VH5KkrkmWFFweN/W13+uKcQSm1aCmW4rrrrlNxSdGMx+35eaqtc4bP8fT0qqnRJe/A4ge6w9y+970e1TjrVux55RX36I3WDEnSq15zj8ortKLPN3rxxV8m5blAoqVES11gr0NFh6qwVNoaZw4th1S8pDEnyyy412E+40hMzZ6fp3/78hPasmWL0tPTJUm//ea79aZdO/XOdzxAsENcPxl9Vj8ZfXZFn9nR/hV9aEWfCJhbEiZKsNchex1iOR1p+QdZLBZlZmZq/fr1Wr9+vTIzM2WxWPS5xz+T7PIAAMskJVrq4suT+3RZigQ6o2wVlxhe5pbpmKt+hplX8fY6XPgTZ9zrsGUhLW6tcjy6J9A9HFykMzW+n5iPglu26cD73qN1wcHcN9+8TZJ0+OEHo87bsGGDbtp6kzIyMqbdIyMjQ1k7svRnH/qArl69GnM0Ta+88opevvCyXn75Zf3qV7/SjwaHND4+viyfBwCQeEkIdYH1hcpj3o2712H4RWCvQ3eKdG2Gxq41Hw+sdRTY6zBO17Fxr8Ndh+Q2tjzOm3Gvw2CIC47329tWJS1kjaWWsxqrK5KFvQ5XnVuuu04leblKm5iQFBhTJ2nauLoNGzbMea/ikqI4oU7asmWLrnvVddqy5VW68cYbJUnDQyP6wQ/O6Lvd39M3T/2XLl68uNSPAgBYJinRUjfrXodje1RbEtzrsCUVWuui9zosz41dHDMi/l6HD6p4hlXU44ve69AYhtnrcO14euQn+vZffSI8Zf7229+gpzqfjDv79cwPn9GmTRPTAt7Vq1d1+fIV3f/O+W18bnttrvbt26M9+96qinvLdcF3QV90t8n9hTa99KuXlv6hAAAJlfwxdbaZA539QL3clY8HxoIF9zo0P/Y6xNL83WOf16VLlzQRbNWTpImJCV26dEkf/+j8x1MO/XhYn3/8H3Vfxe/rLXft0xdaWvXu91TpW90nVfORR7R58+blKB8AsEgpu6MEex2GsNchFuYfPv9P+ptPfkYvvvhLvfTSS3rppZf04ou/1N9+6lF1fPkri7rnL35xTp/77ON6y1379LefelS/c/CA/uPrndp1x5sSXD0AYLFSNtRFYa9DsdchFuIfPv9P2nn7nXJUvleOyvdq5+136h8+/09Lvu/FixfVcsStt+05qG9846T+9UtufeSjH57XWD4AwPJKiTF1czPM3Jx1tuli1OugbTDOBAbDxISl3LsxK1C3FNjrcCBP5cbWOmepOnaGAldgr0NvfllULe7K3VLMDNhF73WYMrOIsRQ//OH/xF2RP5an55llef6VK1fU3OjS8a99Q5/6W5fecPsb9L73/KEuXbq0LM9bbf70N+5Q+pZN4dnKyTZRnFr1AGYyUXyHnjp1UuMpsE3Ymt77dcOGDSu61+FLv3pp2u4P199w/Yo932jy2qRefvnlpDwbC5dqP19G1113ndo7n9S5c+f1vvf+kSauTsx9kcm1/OdxpZ0/r7Q4s4yTYSorK6XqAcxkKitLH/1QjX76zOlkl7JaWuqWxzsqypK+12HPM99ZsecbsdchEuWVV17Re6repyf/rVWPPva3OvzgBzQ5OZnsspLqvqe6UiqEp/IvBcBqd/HwQ8r86c+UnuxCtMZDHXsdAonxi1+ck6PykFqf/IJcn2zS//uzD8vvT0gnAABgntZ0qGOvQyBxfvaz51T97j/Qk0e/qA898qf6a9ffJLskAFhTVsfsVwCrwujIqB78oz/Re977bu3bvyfZ5QDAmkKoA5BQp7//A/3NX39af/XXf6msHbcmuxwAWDMIdQAS7sg/f0E/OH1Gjz3+GWVkrOlRHgCwYgh1AJbF//3gI7JYLKr5SMIWlQQAzIJQB2BZ+HwXdPiPP6B3vute/e7BA8kuBwBMj1AHYNkMDHjV/JcuNbka9JrX/FqyywEAUyPUAVhW/9r6pP7zm9/S5z7/qDIzM5NdDgCYVsJGMLPXIbB8UmlvwcWoddar86tP6eMNH9WHH/lIsssBAFNKWKj7zR1ZSsvckDJ7C05lpVY9wFJMZWXpa5s3azzZhSzSpUuX9NAfP6z2zi+pp6dXHe2dyS4JAEwnYaGOvQ6B5ZNKewsu1tCPh/XnH23Un/9Fnfr/u19DPx5OdkkAYCqMqQOwYjraO/W1/ziuz33+UW3atCnZ5QCAqRDqAKyoj9X/hSauTqjJ1ZDsUgDAVFjqHcCKunLlih7644fV+dWn9PuV79K/tn0p2SXBwNHWrdoSS/CVT57G3XK0hI426NhQmXJCR3tcKq5sDbyoPiJPnVUn26XyiuzAe8Odsj+RJU9dkQJ3HFWHrVQ1izl/ns/39mxVcah+X6+adh2Sez4ffD7Xu7rkDdW6DJ9Hw52yH6ifT7VAXLTUAVhxzz77U9U661VT92Hl59uTXQ5CXF2qLRlXh61AdluB7O3jKq7rUrOkUACx9rgCx2ydGitxytNWZbhBtsp39gWON/bKl1smb51VJ20Fsttc8viytXfR58/v+cXWU+HjI5YiHY46PpdZrnd1yVuxVZ7GgshxZav8eEPU9Qv9PGoP3c8lz7aymM8DLAyhDkBSfO3Ycf3b0XY99vnPyGLZkuxyoCq592fL13M00pLkLJU92LLkaNujHF+vHgu1jKleB9tHZSm5Lxj6JMknzxPBlqaWU/L6ZLhfq54e8MlizTM8c/7nL/j5qlffsGKeN5dZrneWym4ztloGjs94/Xw+z3CnDoZ30WuV49FeKerzAAtD9yuApGlu/Cu9aVehPvXpT+j9hx5MdjlrXJ6sFmnsuda4R/OtFun82eiuzIEx+WSd9a4z3W+h5y/2+QlXfcTQnSppjkncs36e3DJ5h8pijowutUKsYbTUAUiaiYlrOvzgB/SmXTt16H3vSXY5wMyqj8gz1C9vXZHGgl2mHUtdlWe4M9j1avwyjrkDFoZQByCpzj73c334/31Ef/b/PqiCN96e7HLWsEGN+STrjvhjugbGfNK2LDmMb+ZbIy1WyyzZz3fsz5MlGMIiXaaLF/fzAEtEqAOQdE+fOCX3F9r02N99WjfceEOyy1mjWuU4ETNGrfqIPEPdcldL7spTMRMPGnSsImYM3jJK9vMlRYUwR1u3ynMXf6vpnydwT+/pIwQ9LBqhDkBK+Ju//rTOnTuvz3z2U0pLS0t2OWuTs1RNPVtVPtQvb7irMTQ5oF4HgzNOvUP98gZnooaXFFl2yX2+u/JxeVSk2uD3ptZ6Sk09Pim3cJETG+p1sLFXCn+eftXmD85/CRYgjrTt1tv8ibhRqm3LlWr1AEuxVv4+37L9Fn3l35+S+wut+rvH/j7Z5Sxaqv37SrV6ADNJpZ8vWuoApIxfvPAL/d8/fUQPf/Cwdt/9W8kuBwBWFZY0AZBSur/zXf1V01/rsb/7tN5X/Uc6/f0fJLskrHbTdoKIsZCdJ4AURqgDkHJajrh1/fXX6x/++e/07gfeq4EBb7JLwmrmLJU9ATNWgVS35kOdo61btdZBebYVqTi03V/M4Nvm4/3Rs5wM+/MFrj+lDpWFzxlpL9CTOwz7J8bu5xfzW+NIe2KmyANm8pm//axuvPEG/Yv7H3X/fe/WT0Z/kuySACClMaZOknKLZD0R2utwVJaSB+WuDhxqPt6v8m29arJFjiu3TMdcxuvLVHgmcLypx6ecisDMqMj+f3vC9wsEOkX2VmzslbWiO3IcQNjHP9aob37zv/SF1n/Wq299dbLLAYCURqiTJF+vngy1lDn7NCKLrPmBlzUHCmQ3jrVw9mlkluvdJwblm7b/X+h+gb0VR9oNK4a3HNJjPVLxAw2xdwXWPL/fr498+KPq+0GfvvyVL6m84p5klxSl/B33qKPr37RlC3vXAki+Nd/9Ol+ONkN3qjQ92EUZ19mWeO8H9lbMqeiXtyLm0FK3mwFMampqSh98+EN6t+P39ZH6D+ud77pXH/nwRzU6kpg9Mu35efqD9x+S7bW5mpycVKv7X9Xx5a/Mek35O+7R4Ycf1BbLFrlbVmqdNgCYHaFuDpEwN6oO227VqEHHpm3AvDCMoQMWZmpqSl9oadWx//i66j9Wq69+rUPf+q/v6Kmj7frPb35Lk5OTi7rvA5Xv0sc+XqeMjAytX79eU1NTsufnqbziHjkqD007PzbMfeFfWnXhwoWlfjwASAhC3ayqtC/fksAQFthb0b6jShK/3QMLdf78mB4+/Ge66+7davjLj+lzn39U586dV0f7V/TU0Xb97GfPzfteWVm3qrbOqU2bNmnDhg3h9zdu3Kg77twV6FoNttgR5gCsBoS6ebCGQ1iV3KfLlKO5ul9n0irHifvkrXhQ7urW4NY7VXKfdso+sJLb7QCr23e+3a23/vbb9Ntvvlu/e/CAfr/yXfqjB/9AZ37Qp+eff0FjY2MaH3tR42PjGh8f18svvzLtHnfdvVtpaWlRgS5k8+bN+oM/fK+yc7L1jop7tGnzZn3j6yd0/Ovf0MWLl5T/envU+Z6e3mX7rAAwX4S6WbXK8egeeeqc8g4FmupG2l3y7HeqeGeDpPrZL4/HWaqmHd2qreuXty7wVuwSKgDm51v/9W1967++rRqntPuu39SdRXfo5ltu1o4dO1RY+EZttW7VjTfeoM2bN8e9Pj09Pe7769atU64tV7m2yFpG5RX3zDhRo+hNv0XLHYCkY+9XYBXg73Pi7d33Vn36s5/S1q1blZaWFnXs0qVL+vJTnfr4xxr1nvdWyVFdpQu+C3rs0cfnnEQhpd6/r1SrBzCTVPr5YkkTAGvSyae/qbGxcV2+fFl+f+R328nJSV26dEn/9I9HdOFCIMjtffPvqOPLX1FN3SM6+Z9fV/k7UmtpFQCQCHUA1rAH//Cwnn32pxofH9crr7yi559/XuPj42r8i2Z5BwbD5xHuAKwGjKkDsGZ5Bwb11rv3a+++tyr/9Xadfe7n8vT06uzZn8c9PxTuvvAvrXrPe6tUU/eIDj/8oByVh2a8BgBWCqEOwJp38ulv6uTT35z3+cZwV15xD4EOQEqg+xUAFunChQvsKAEgZRDqAAAATIBQBwAAYAKEOgAAABMg1AEAAJgAoQ4AAMAECHUAAAAmQKgDAAAwAUIdAACACRDqAABL1KBjQ/065krM3Rxt3fIebwi/bj7eb3hdJffpfnmH+uUd6tLRtm55Tx+RIzGPBlY1tgkDACxRvQ7a6pft7jUHClQTelG9R3bLqDpspZH3AEgi1AEAwhp0bKhMOaGXw52yHzCEteoj8tQVyRJ86etxqbiyNXyd2gt00Bk45mjrVm1J+Ex5GnfL0RJ41Xy8X3vHejVWUhR+1kjw2sh1ZfKezlLTrkPKP96vcnXKfqZQ3opsSVL5UL/29rj0mB5Ubf6gmnYdknuO586q+og8dVZ5e7aqOHS9rzd8X0mSqyv8/ABDuAxef7JdKg+dM9wp+xNZhu9ZbBid4/sNLBDdrwAABbo1y2TtccluK5Dd5pJnW5k8bVXB4w06VleksfaC4PFOjZU443a5Otq6A0HLFjy3fVzFdV1qNpxjKcnTWGPgeFOPTzkVgePuyt1q6vEFAo4xUEmSs1T2xl75NKoOW0EwUBq4ulRbMq6OWZ47u2wVW0+FP9+IpUiHQ5/f1SVvxVZ5GiOff0TZKjd0E0vZKt/ZFzje2Ctfbpm8dVadDH0/fdnaa/x+BoNw/O83sHCEOgBAHK1y7IoEJ0fbHvIJUNgAACAASURBVOX4evWkM3S8XgdtkZa5iAbdXyJ5HjUEMmepOoaNgUbS8KlwC5r7xKB82qqs6qXUWyX3/mz5eo5GWsKcpbIvqJvWJ88ToZayevUNSxZrnuFexla/wPEZr285Ja9Phnpa9fSAL3w/R9se5Qx3Gr5/rXI82iuV3LeAEApEo/sVACCpVY4T98lb4ZR3yDmt6zHfapHOn41uOYunOktWWZRT1y9vXfQh39gylB2WJ6tFGnuude5TlyKmC1rTgl20merJt1qk3DJ5h8pijowutUKsYYQ6AECAs1R2p8LBpXaoX7WLGue1gLFsq4UhzI20F6jYGRgbWL6UezKGDglG9ysAIFrLIRXbCmRvH5VyC9UsaWDMJ23LmnvpkJazGpNF1vwVqDPKoMZ8knXH8oxJc+zPk2W4U/a4Xc4LN+/vJ7AAhDoAgELrvxkH6jfvzJaG+1QjyV15SiOWIt3vmvn8gHo9aZj4EJDYdezia5XjxKgsxjFp1UfkGeqWe0lj9QwMIczR1q3y3MXfKvT9PGz4/jlYcw9LRKgDACgyUN8ZXNi3X+XbetV0IDJx4GBjr6wVoYV/nSo+3zl9BqoCM1g7hrNVPhQ6N3q5k7m4TwwGZo4OLWTmqiRnqZp6tkaeW1eksfbEdAO7Kx+XR4Euae9Qv2qtpwKzdIMtmQsX+H4av9/GpVmAxUjbbr3Nn4gbXTz8kDKPHlX6ufOJuN2SpVo9wFLw93l1SbV/X6lWD2AmqfTzRUsdAACACRDqVljUmIlEj/cAAEzn6gp3ccb9YhwbTIIlTVaYu3I34yUAYCWFlmoBTI5QJ03bz28kdv9C6yl1qCw802mkvUBP7jDsLxiz1lDz8f7oWVGG4+HtcxgMCwAAEojuV1eXvBWK7BXY2CtrRUyXaG6ZCs8Y9ygMzHyK7O+3J3x+8/HgjLHw3oOjUm7ZMk/lBwAAa90aD3WBvQJH2g17A7Yc0mM9UvEDhk2aDfsdBvYojN3fL7LQZs2BguhNqJ19Gln+DwIAANa4Nd79GtgrMKeiX96KmEOz7uc3rrNzrHvkaDN0z0oEOwAAsKzWeKgLGFnAophziYS5UXXYdqtGDTo2bcNmAACAxFrj3a+J3iuwSvvyLRppL5DdZujSBQAAWGZrPNSF9gp80DAxYqb9DOcvEhKr5D5dppyllgkAADCHNR7qFNwrUCqui+xnaB9wxd3PcG6xeyc6ZT3hkscn5exsmPtyAACARWJMnWZfEHjasZZDKo6aJNEqx67WWY5LckaOR90v3rkAAACLQEsdAACACRDqAAAATIBQBwAAYAKEOgAAABMg1AEAAJgAoQ4AAMAECHUAAAAmQKgDAAAwAUIdAACACRDqAAAATIBQBwAAYAKEOgAAABMg1AEAAJgAoQ4AMD+uLnlPH5Ej+NLR1h31GkByEeoAAABMYH2yCwAApBBXl7wV2cEXPnkad8vRYnw/W7VDXcq3lWpAkmTV/af7VWsJXtHjUnFl6wz3k0baC3TQGfizo61bhzWosZIi5cQcm4mjrVu11kF5thWpeIZnNh/vV3mu4aLhTtkP1BuuP6UOlYXPGWkv0JM7ulVbYpl2/lyfAUgltNQBAAJcXfJWbJWnsUB2W4Hs7eMqruuWu1qSs1T29lHJ16smW6lqQtdYsqUTofNHZSl5MHB++H5Shy14vLFX1oruyHFJlpI8jQWfN++glFsk6wzPbD7er/JtvWqyRY4rt0zHXMbry1R4JnC8qcennIp+1VpPhWv05e5Z0GcAUgWhDgAgqUru/dny9TweaJmTJGepOoYtKn6gYebLfL16MhTGnH0akUXW/Mj9RtoNAbDlkB7rUfT9fIN6ukULM+MzpZoDBbLvOiS3jMdnvt59YlA++eR5Itgy13JKXt8CPwOQIuh+BQBIypPVIo091xr17sCYT+XWxd8vp6Jf3oqYQ8OLrXH+HG2G7lRperCLMq6zcYNlcj8DsFCEOgDAslnp8WeRMDeqDttu1ahBx4bKlnRPxtBhtaD7FQAgaVBjPsm6oyrq3XyrZYbzF3e/5VWlffkWjbQXyG4c97doyfgMwOIR6gAAklrlODF9okN5rmG82VLvpyq5T/fL07a8ISkSwqrkPl2mnEXfKXmfAVgMQh0AIMBZGpzx2i/vUH9wJuxuw8SJPo1YilQ7NM/Zn85SNfUocr8hp+wDMUueJFSrHI/2SiXO8POsJ1zy+KScnYuc2LDinwFYvLTt1tv8ibjRxcMPKfPoUaWfO5+I2y1ZqtUDLAV/n1eXVPv3lWr1AGaSSj9ftNQBAACYALNf14rqI/LU5clr7EoBgBQybSeIGNN2qwAQhVAHAEgJNQcKEjBjFVi71nz3q6OtW97jDWo+HhoE2x+9nYwUdcw71C/vceOA2wYdm/FY7LVdapYUb/aUo61b3tNH5Ii6b+h8BbaqCd8nepCyo61bnrYj4TpC9Ruf7XlgUauHAgCAVWLNhzpJUm6Z9o65DPv6RQejmfcRDEyXt/YEr7W55NlWFg5rjrbuqGuberaq/PQROdSqpwd8sljzggUE1laSxar8UE2uQuUM9wV+a51tP8ag2P0To+t2ybstW4tdbQoAAKQ+Qp0k+Xr1WGicRsshnRyOTH+f1z6CYa1y7CqYccyHu3J3+F7uE4Py5RYGW+LyZLWMamQ4W4WhMLkzWyNn6jXv/Rij9k9sUGGuNHIiVHdgmr9vId8TAACwqhDqJOn82UhoU2CvQ23LMnSFBrtHh/rlHTIuZBlamDK4JlJU96nkrjwVXNNpepepWs5qTFuVVa1wq9yTY77gopkNKswdVZ9Tmm0/xhlVZ8kqn8YGYp8HAADMilA3h1CYqy0ZV4etQHZbZ3RLnbM03G3rCwW48Li6eh0Mdcv6LMHFK0Pj5OrVN2yRfX+VHDu2yjc2KPeJQSl/jxzVWbKGul4BAADmgVAnTWuVy7dagq13C9hHsOWQisNj7gojExwkhbplA4Ew0sVac2ZUFuse7cuXvCdaA61pFqv27c/T2JnQtjyL2I+x5azGZJE13/BedZaYKgEAgHkR6iTJUqT7QzNeq49ob8xehzPvIzh9Fmvzzmwp2Mo2bUarq1A5CnWrShoYky+3SMWWcZ1tkQIBLlvFJeORcxa1H2O9nuzxKWd/6NlVcj9cxEQJAABMjFAnSb5RaX9w+Y+6Io21hxbonWsfwdjjwRmnBwJhy135uDwKjakL7aNoaPFrOSWvT+EQqOCsWPnGZBwON+d+jHG4K3er43zo2U5ZB5goAQCAmbH4sCRpTE/uKo2aLBHWckjFseHJ2Tr78bBWOXbNtvr59OPuyt3x63CWyu6Md2Dma1jIEwCAtYOWOgAAABMg1AEAAJjAmu9+nbG7EwAAYBWhpQ4AAMAECHUAAAAmQKgDAAAwAUIdAACACRDqAAAATIBQBwAAYAKEOgAAABMg1AEAAJgAoQ4AAMAECHUAAAAmQKgDAARVyX26X96hfnmHutSc4Ls72rrlPX1EDkmqPiLPULfc1Ql+CLCGrfm9XwEAQdV7ZLeMqsNWqppluD17bQPLi5Y6AIDk6pK3rkgWZat8qF+etipJUvPxUMtd8Ot4Q/gSR1u3vMcbos455gq+P9P5oZY6g+bj0eeFWgxDNQCYH0IdAEBylsre2CufRtVhK1BxZauaj/erfFuvmmwFstsKZG8flXLLdMxluC63TIVnAsebenzKqehXrfVU4PzGXvly98zZxVpzZlTKLYx09wZbDE9Wti7ThwXMiVAHAIir5kCB7LsORbpMnX0aiT3J16snnYE/uk8MyiefPE/UB95oOSWvzyJr/hwPcvZpRNkqDIZFx/48WYb7lqULGDAzQh0AYFaR7tQy5cx59rjOtiz0CfXqG5asOwLdrflWi0bO1C+8UGCNI9QBAOIKhbnaknF12Apkt3VOb6lLkJozo7Lk75FDDSrMHVWfc5keBJgYs18BAHFUaV++RSPtBTq4EgHL2aeRij3a12ZVznCfDq7AIwGzoaUOADCjUJdoYEbqfLpfF6tefcMWFZdk0/UKLBKhDgAQR6scj/ZKJc7geDqnrCdc8viknJ0Nc1++CDVnRiXR9QosFt2vAICAlkMqbpnltSQ5I8uMTFtMeNr5rXLsmuH8ePeWJGa9AotGqAMApITmndkaOVOa7DKAVYvuV1dX1ArnM614vvwCK6hHLeoJAGtB9RF5hvpVrs6VmZQBmBQtdTHYmxAAVthMXbEAFmRthzpXl7wV2ZKyVTvUpXxbqQbaulWbP6imXYfkrj4iT51VJ9ul8orswDXDnbI/kSVPXZEskqTYza8bdMy4QOdwp+wHIjO5mo/3qzw39Cp0bZXcp50qtkiq6Jdnh0vFla2B317Dz5EknzyNu+VoCT1nj8baB2WvCJ7j61XTrrO6P/z8+ZwfWS3e0dat2hJLnGcBAIBUt7a7X52lgb0Mfb1qigpmRtkq39ln2MewTN46q07aCmS3ueTxZWtveNPpQKBTe3CfRJtLnm1l4U2pHW3dUfsoNvVsVfnpI3KoVY5dgVllI+0FUYFuzHgvn0XFDxu7hi0q3i89FloU1FKk2qE9GmsMXNMxbFHxA8ZZahYVV4RqL1DH+SLVhrqaXV2GBUYLZG8fV3FdV2QvRgAAkNLWdqibl9h9DCVfz9FgAGzV0wM+Wax5kiRH2x7lDBvHhISWBLgvbjhyV+6O3lfRqOWQim0FUfd6esA37bSRE6HrA9vsaPhUuHWt5syotC0ranzgSHskvNY80SufJU/74m227SyVfcagCwAAUg2hbhHGnmuN+36+1SLllgXXdAp+GbpP3ZWngq1p/fIOdcsdL0xN06BjwXtFukZn5hsbnO2oxgYML1vOakzBzbadR+XxZas8+CwmbAAAsLoQ6hJtuDPYXWr8CrV41eugsSu1rl/eoZm6OENhrkzWHlewu3Z6S13itMqxK9RtK+VULCR4AgCAZCPUJdDAmG9ad2d8oQDVqRFlqzBeq5irUDm+wPi74sr4LYMLF2yVC6nOkjW29U5SzYFI8LTvrxIAAEh9hLoECnWvHm6LBCHjunfT1sBzFSpnti1xLFaFM5ira17dr3PJ2R95fvMDRbKExuC5uqJbDav3yG7xyXsiUYESAAAsJ0Kdsy84zi0RXY31Otho3CuxP7I8iiR35ePyKDSmrl/eiq3yNJZGTbrIqeiX93iD5CxVx3BkjJt3/5ia2kelmSY2zNPIeWv4+eXbetUUWm4l9nl1RRprZ0kTAABWi7Tt1tv8ibjRxcMPKfPoUaWfO5+I2y1ZqtWTfJHlVlixffXh7/Pqkmr/vlKtHsBMUunni5Y6AAAAEyDUAQAAmMDa3iZsTanXQVv93KcBAIBViZY6AAAAEyDUAQAAmAChDgAAwAQIdQAAACZAqAMAADABQh0AAIAJEOoAAABMgFAHAABgAoQ6AAAAEyDUAQAAmAChDgCwaI62bnlPH5EjwecCWDj2fgUALJq7crfcy3AugIWjpQ4AEOHqkneoP/jVLXd15JCjrVuetiM6Fjx+zDW99a35eH/4+tC5x1yR68PnVh+RZ6hL7rbuyPNoxQOWhFAHAAhwdclbsVWexgLZbQWyt4+ruC462FlK8jQWPH7QGX25o61b5bmj6rAFjp+0Filn1gdmq9h6KvAsW6dGLEU63Fa1DB8MWBsIdQAASVVy78+Wr+dxOVqCbzlL1TFsUfEDDZHTfIN6uiX+9fvyLRppL1VN8J2aJ3rlm/WZPnmeqA/+uV59w5LFmre0jwGsYYQ6AICkPFkt0thzrVHvDozNHsuir/dpbMDwVstZjSWsPgBzIdQBAACYAKEOACBpUGM+ybojekxbvtWygOstsuYb3qrOkjVh9QGYC6EOACCpVY4To7KUPBiZGOHqUnmucdzb7Nc/PeBTTkWXmoPvND9QpPlGQgBLxzp1AIAAZ6ns6pK3rl/eOknyydO4OzJxYg7uyt3KP96v8qF+lUvy9fRqJDcvepwdgGVDqAMARDhLZXfGPxRv8eDY92oOFIRnv0oNOjaUF//clkMqjgmL0dcCWCi6XwEACVAl9+l+eQzrzDna9ihnxiVQACQaoc7VtYRVzAP/EQutlm58L7Iie7+8xxviXx61cvv01duN50Q/I/IcDwt1AkgJrXI82iuVOMP/TavNH1TTrkNsDQasEEJdQlXJfdop+4AruEJ6gew2lzzbyqYFx+bj/dErt9sKZG8clL0uflAzDj4GgJTUckjFNsN/0wh0wIpa26HO1SVvRbZkKVLtkCE0zbL34ayq98hu8cl7wrh4Z+C3V58lT/uiZpSNqsMWMwC55ZCKG3sl4+wzSfKNasSXrfKZWvwAAMCat7ZDnbNU9vZRyderJltwa5t57H04o5azGlPMljpS8LfXSIBr3pktDffFHxDcckgnhy2y7ze21o3pyUd75csti9MNCwAAsNZD3TTz3PtwRvU62BgIXzO39FUpa5vkGxuc8S4DY77p+x+2HNJjPT66YQEAQFyEuihL3ftQ0WNK2kclWVRc17+EyRgR7srH5aEbFgAAxJGwUOe/dk1KT0/U7czBWRocMNypEUuR7ndJUqvOntf0ljiDfKtlhpa84Pg8umHXFH/w5ypt4lqSKwEApLKEhbq0K1fkz8xM1O2SZK69Dxt0bJaJE4627hla5KLvW3NmVMotjN+NWn1Ee3NjJ1sYhLthH5R9fh8Kq5w/c2PgD1euJLcQAEBKS1z369Ur0obVHurm2vswsGF1eBJDcLZraAscd+UpjViKVBvbPeq6T8WWUZ2sDAY1Z6k6hrNVHhsQq4/IU1ckGcf0xRHohrXIwqaKa4J/Y+DnKu3K5SRXAgBIZQnbJizt8hVNZW5I1O1WjrNPIxVlqh3q1r7G3XLMuvdhqxyP7pGnzinvUGAfnZH2AkMAq9dB26Dcp53yDpVFnuHrVZPt0PStdFzG54SeVTCPfRZDdRQt9dNjNdiYKf/ENaVNTiW7EgBACkvbbr3Nn4gbXdm7R2kT17ThW99KxO2W7OLhh5R59KjSz51PdinAkky84fW6dvvt2vSlo8kuBfOUav/9SbV6ADNJpZ+vhHW/rnvhBU1m3Zqo2wEImsrKUvrzzye7DABAiktYqEv/+fPyb90q/6aNibolAEmTO3Yo7fkXkl0GACDFJa6l7pe/VNqLL+ra62ZeqgPAwlzLypI2ZGj9s88muxQAQIpL6OLD6/v6dO1NO6V1rGkMJMK1O3Zp/f8OKO3q1WSXAgBIcYkNdd5B+Tds0LXXvS6RtwXWpKmtN2nyttu0/kxfsksBAKwCCQ11aZOT2vCtb+vqXb+lKcuWRN4aWFP8GRm68ra3af2ZM1rnW8A2dQCANSvh/aTrvV6l/+SnunJPqaY2rvbFiIEkWLdOV/7P7yrt2jVlfvd7ya4GALBKLMvgtw3f/KY0OaUrFRWauvHG5XgEYEr+jRt16R3l8m+7WRu+9jVpigWHAQDzsyyhLm1yUhu/3Km0Cy/r8rveqWuFhfKvxt0mgBXiT0/XtXy7Lj1wv5SxQZlPtWvdy68kuywAwCqSsG3CYqVdvqSNXV26Vlioq3fsku6+S+k/+pHSf/Yzrfv581r30kvL9WhgVfBv2qTJrFs1ddttwclFfq3v/6EyejxKm5xMdnkAgFVm2UJd+AF9fYGlTl5r07U3vEFX9+4NHLh0UevOjyvt6hWlXb6stMuXE97VdO0Nr9fUr19M6D2BRUlLkz9zo/wbM6WNmZraYpE/ODRh3blzyvjud7V+wKu0iYkkFwoAWK2WPdSFH/TjIa3/8ZAkafLmmzW1/Rb5t2yRP3OD/Bs3aur66xO6vt26s2flv+FGTd7AmD6kAP+U0q5cla5eVdqLv9T6n53Vul/8QuvOnVPatWvJrg4AYAIrFuqM0s+dU/q5c8l4NAAAgCmx9QMAIMDVJe/pI3Ikuw4Ai0KoAwAAMAFCHQAg0EpXkS1ZilQ71KXm6iPyDHXLXR1zzlCXmiWp+og8Q11qdnXJO9Qf+DreEHPTBh0LHYt7HEAiEeoAAJKzVPb2UcnXqyZbqWpaTsnrs8i+vyp8SvPObPl6jqom/E62yvePqclWILvNJc+2MkNwa9CxoTKpvUB2w3FPW5UALA9CHQAgjlY9PeCTJX9PcIxdgwpzffKeaDWc45Pn0UNyB893nBiVcgvVLMnRtkc5w5066Izcz/For1RyX6ClD0DCJWX2KwAg9blPDOpwiVX5klSdJatvUE+2GM8Y11nj64Ex+ZSnrGpJVouUWybvUFnMXUeXuWpg7SLUAQDiazkl78NOFbokx448aeDxYKvcPA13yn6gfrmqAxCD7lcAwAwCXbA5O49oX75iul4laWugVS4k3ypLsPVuYMwnbctieRRgBRHqAAAzcp8YlC+3SMUa1NMtsUctKn4gNDGiSu79kYkU7spTGrEU6bBhYoSjrZt18IBlRKgDAAQ4+zRiKVKtcSmTllPy+iTfwKk4Xa8+jWhPcMkSp4rPd6q4MtSaV6+Djb1SiTO8pElt/qCadh1aWBcugHljTB0AIKheB23xxsDFznqNGHtitw5Oa8ELajmk4pmOAUg4WuoAADOr3iN73K5XAKmGljoAQFzNx/tVnuuTp3E3XabAKkCoAwDEVXOgwLB7RAy6VoGUQ/crAACACRDqAAAATIBQBwAAYAKEOgAAABMg1AEAAJgAoQ4AAMAECHUAAAAmQKgDAAAwAUIdAACACRDqAAAATIBQBwAAYAKEOgAAABMg1AEAAJgAoQ4AAMAECHUAAAAmQKgDAAAwAUIdAACACRDqAAAATIBQBwAAYAKEOgAAABMg1AEAAJgAoQ4AAMAECHUAgBk06NhQv465Aq8cbd3ynj4iR3KLiiO6TmCtWp/sAgAAq4O7crfcyS4irnodtNUnuwgg6Qh1AIAwR1u3akssgRfDoxqJPZY/qKZdh+SuPiJPnVUn26Xyiuzg+Z2yP5ElT12RAncYVYetVDXhOzTo2FCZckIvhztlPxAMY8H7eXu2qjj0fF9v4FnB05uP96s8N3Sx8d6B+6q9QAedcT5HTB3Nx/u1d6xXYyVF4VpGDNcGagl9BsnX41JxZevCvpFAEtD9CgCQFApC4+qwFchuK1CHsiMBLK5sle/sk91WIHtjr3y5ZfLWWXXSViC7zSWPL1t726qC50aClz10fFuZPOHjgfsVW08Fj3dqxFKkw8HjjrZulW/rVVOwtqaerSqfoSs49nM09WxV+VCXmg3nWEryNNYYOu5TTkXoeIOO1RVpLFxnp8ZKnHTtYlUg1AEAJFVpX75Fvp6j4RatmgOdUS110/nkeSLY0tZySl6fDNe36ukBnyzWPEmSo22PcoY7I61hapXj0V6p5D5D2DLcT/XqG1b4+ljuyt2yG1rxIhp0f4lFI+2Rljl35eMxAVPS8Ck5WoLHTwzKp63Kqo73pHodtBla8YAURqgDAEjKk9UijT1n7GYc1JhvYXeJvj4i32qRcsvkHeqPfBm6OOfirjylEUuRaof65R3qljtuAJNUnSWrfBobML7ZqrPn5/sJ6vVkj085FcEajzfM90Ig6Qh1AICVMdwZ7NI0fhnH3M0m0GIW6Na1qLiuX96YLtVEcVfuDtTWPhoOotHdxEBqItQBABRqlbPuMIaXQOtdIgyM+aRtWQlYDqVVjl3BMXfKVmHsWLeWsxqTRdZ845tVytq2iEc5S8Nj7iz5e1JwKRcgGqEOACCpVY4To7IYxrg1Hy+bY6LE/IW6Tw8bWrwWsu7dtHNdhcrRqPqmjXULdZ9GWvEcbQ+q2DKqk/OawRq75l1wrOHAqRRdzgWIYEkTAECAs1RNO7pVO9Svckm+nl6N5BYl6Ob1OtiYJU+dU96hYBKLWbJkNu7Kx7XvtFO1Q/2qDVwsT+PuuF237srdUlvkc0xfWmWOOtsL5a3ol7ci+NZwp+wsaYJVIG279TZ/sosAADO5ePghZR49qvRz8x6dv6xSrR7ATFLp54vuVwAAABMg1AEAAJgAoQ4AAMAECHUAAAAmQKgDAAAwAUIdAACACRDqAAAATIBQBwAAYAKEOgAAABMg1AEAAJgAoQ4AAMAECHUAAAAmQKgDAAAwAUIdAACACRDqAAAATIBQBwAAYAKEOgAAABMg1AEAAJgAoQ4AAMAECHUAAAAmQKgDAAAwAUIdAACACRDqAAAATIBQBwAAYAKEOgAAABMg1AEAllXz8X55jzckuwzA9Ah1AAAAJkCoAwCEOdq65R3qD351y10tSVVyn+6Xp63KcGaDjg3165gr+nX42tla5lxdhmcY7wFgKQh1AIAAV5dqS8bVYSuQ3VYge/u4iuu61KxWPT3gkyV/jxzhcwuV4+vVk04pEPrKZO1xBa6zueTZVhYTAiPP8FYo8ozGXlkrQuERwFIQ6gAAkqrk3p8tX89R1YTecpbKbitVjST3iUH5LHnaFwxfzTuz5Rs4Jbckue5TsWVUJytbgxe2yrGrQMXh19HPGGkvjTyj5ZAe65GKH2DMHbBU65NdAAAgFeTJapHGnosNYkEtp+R9uEjWfEmqUtY2n7xPBM517Ngq+QY1MM9n5FT0y1sRc2h4ScUDEKEOADAvrXp64EHV7myQqrNk16Aea1ncnUbaC3TQmdjqAND9CgCQJA1qzCdZd8QZBxfkPjEoX26h3PvzpFDXqyT3c+OSxar8BDwDwOIR6gAAklrlODEqS8l9ag69VX1EniHDJIaWU/L6slVcInlPGLppnUfl8WVrr2FiRPy16ULPeNAwMSLezFoAi0H3KwAgwFmqph3dqh3qV3nwrZH2AjnC3ayBLtji/EE9HdX12irHrjwdG3LKOxTsV/X1qmlX/czPqOuXty54ao8rzqQKAAtFqAMAhLkrd4e7VWfiM3S9RtTroC1OiJNUc6AgMtt1ns8AsHB0vwIA5qlK+/Jjul4BpAxa6gAAc3N1yVuRTpeKjwAAIABJREFUHegqXeSsVwDLi1AHAJibs1R2liEBUhrdrwAAACZAqAMAADABQh0AAIAJEOoAAABMgFAHAABgAoQ6AAAAEyDUAQAAmAChDgAAwAQIdQAAACZAqAMAADABQh0AAIAJEOoAAABMgFAHAABgAoQ6AAAAEyDUAQAAmAChDgAAwAQIdQAAACZAqAMAADABQh0AAIAJEOoAAABMgFAHAABgAoQ6AAAAEyDUAQASrEru0/065lrCLaqPyDPULXd1wooCTG99sgsAAGCalkMqbkl2EcDqQksdAEBydck71KXm8BsNOjYU3drmaOuWp60q8KL6iDxD/fKGv0KtalVyn3aq2CLlVPRHzg+23oXPP31Ejqhndcnd1h05FtVS16BjQ91yt3UZnmesNbae4L2ingGYH6EOACA5+zSircoKdXe6CpUjybojEsr25UveE62BAFVXpLH2AtltBbLbXPL4LCp++IgcapVjl0senzTSXqDiylaFgp59wBU8v0Ad54tUe7zBUEC2iq2nAsd3HZJ7WoEWFeePqSn8vGyVh69v0LG6IqkneP/GMdlLLMv2rQJSFaEOACCpXn3DFtn3B0KcY8dW+YZHpfw9gdau6j2ya1BPtyjQNWor0EFn6NpWPT3gm/nWrvtUrF49VtkafqvmQKdGcvdEjZkbOVM/a4UjJ0JhL/i8bVmB2lyFyvEZ7t9ySCeHF/DRAZNgTB0AQJI0MOZTuTVP4Va5R/tkrStUviTH/jxp4PGYFrQGHRsqU07o5Qy5zrFjq2TJVu1Qv2qjjvg0loC6HTu2Suf7omobGPOpfFsCbg6sIoQ6AIAkyX1iUIfrCtUsyWoZV19Lvc4+0K9ClySr5H0i1NIWCXO+Hpfsla1ytHWrNn+Wm/t61RS3WxVAotD9CgAIaDklr2+rstoKlTPcpxoFWrysO46ocFuw61UKd3c22UJj5mbnfm5cslg1W+ZbCvdz45Gu2KB8K2PqsPYQ6gAAQa06e96i4pJs+cYGJQUCk6WkSNaBU9GtbMaQ5upS7WwTE5xHYyY2KM5s2yVw9mnEUqTDhpm5e3MTcWNgdSHUAQDCas6MSvIFZrlKwVmx0thzhhY5Z6k6hrNVHlpCZP+YmtpHJUue9lVLoYkMORX98h5vkNQqx65OjeSWRZYkqZA6bKWqSUjV9TrY2CuVOAP3rrPK2+OTzp+luxdrStp2623+ZBcBAGZy8fBDyjx6VOnnzie7FEmpV89KcLR1q9Z6SvYDs8+oBZYqlX6+aKkDAKxucRZOvr/EMucSKYDZMPsVALC6OUvVsbNf5UP9Kg++NdJuXEcPWBsIdQCAVa/mQEGCxucBqxfdrwAAACZAqAMAAP9/e/cb01a+53f8Q5I7mVV1j3TLyXa6MA8AdzFasaRZ2UjN9sEmYaOmKoVFnc4IZKE8G02UpxYIHoFAfjqKNNonCFlGcxWVgnjACjFhpW5Ri5FQkLfFXBm720327k6c/XO6O3cyNxP64Bzbx/w1wWDyy/slRTf4nN/v9z0Hcv2Z3+/8DAxAqAMAADAAoQ4AAMAAhDoAAAADEOoAAAAMQKgDAAAwAKEOAADAAIQ6AAAAAxDqAAAADECoAwAAMAChDgAAwACEOgAAAAMQ6gAAAAxAqAMAADAAoQ4AAMAAhDoAAAADEOoAAAAMQKgDAAAwAKEOAADAAIQ6AAAAAxDqAAAADECoAwAcYkyLmZQWY1XqLrag9MaUIt6XkZnVsq9rZ0DxjSpe50UxOKVkZlXxwVoXUqkxLb5T9V48V2pdAAAAOAPT9xWernUROE/M1AEAiiIzq0pnUu6fpY79J8QWSsf3zOJFZlaVXhrT5NIBx2MLSvc1SVZIw5kFTRZb2fp0o3R+cmagwkr3zyJOLqWUXhorvTA4pWRhJnBwSklf3enijNCA4htRhS2puc8/vjt7Vzy/bEZxTIuZBcUL96qS2Uavlnjh3hTrdK+jdM/Hytv57/fGlCa9e1zsc8/MVtk9KDt+WM1HjD84pWRmQZP+GpbG9txL//eysv7i/p+xsjp61CxL4REDZ03PCaEOACDJDWXDnS81F2hXMNCuOTWp2X9CbEHpPhWPB8fXZfftWS5r6dHtfMx33HuDjnYrOJuTnHVNBLo1VDjfapKWvf5mc7I6P69w+W1UmzuS3VgIYWPqaJF0raG0vNvVKm2tKD44peRISPlZb5xATEnHUvjhlCJKKHIjpqQjZWfbFe5PqBD0glvedQTaNfcipOGywNWksL3iHr9xX/FKSrZCChbuzd1RFYKM/HVd6ykFy8EpJfualC0cX7bV22lVMtIh9tZ8zPhem97rm8Xvp9PSo/SIrSfF+9ik2zOl70El/RVrCMwra4X0YGZA0qjuBeaVlaPkeLvuRU9xme8xQh0AQNKA7rRZctYeFwPX0N15ZX3H411Nys76Atn0fT1ak8Kf+cKOs65H/Yni8Sc7UvP1PbNPfs66fl54A49uKitLdltlFQ89zclqu+XNxDXIdnLKqlV3BgvXI6WXE+4yZMAfFBL6Zss5vOPYJwrLdx3y7kXLrbLAmX06WlmhRY5bjycyc0vNO/NldUW+XJc6P9Gk3FBqld2fx0oeUXYl/DUfN36h5uTXXpvpFaUd+X5G3Pto2a1v158XzAvtcXo8UwcAkNQq25LyzxK+17aVdyTbd7y5L6V0356mO76/v3heNmu1lXfU2+bOnlU0m3USW3k5fbbaVJiV+0qbdlQdbZIGbymobT0qe6assMTnOSQgRRrrJatJw5mUhsuOOMpXsfw225JaepTO9Ow5kisdL7ufCX2z9bnC9vmMf5jyn5HT94fqIdQBACqWnb1AS2PTK0o/jKojJsm2lH+a0NCzT5S+PibJlrYee4GoFOactZiC/Ql3qfmoGUFnXROVLquexs68txS73+SBr57f+BeiP5wIy68AABVn5Rr9zz+5s3OHHz+A75k26aDZpmpyl//sxil1tOS0GZU7e3etQfHr9aWlzliHmp11TQQKz8wdLf7spWS5M4BnaSvv7Ltfxx1vs0/zTN3Jxq91fzg5Qh0AQFJCkeWcLN/zT5NLvqXK4nH/RgZ3h2jZg/BWSJ8Wdi4OTul2i/8ZquqLP3spqzOkZievLUmafq68FVL42ra+8S+9+kNabEHDR204iD5W0mlSr39jRGzhgJ2ep6y9f8W3UcDl/+y+wvFPfTuIe1t8HUw/V16Wgl2ljRW3/cdPOX61rwdnj1AHAHBFuzWxVq9e7+MmbufXfRslCsel8EjhIyvcHaJls19OTuryjo+ElJ+9qUghXEU3lbVCGq7mB8xGN5WV5GyteLOB7sP3ZbOD0W7N7TQVryvdldfEbE6yCpsq3Bm/5r7CR3AkFLkxr2xLT+mjN/qkOf+u3aoY1b3xdakzWhxnuG3bt+zrHrf7SjVkd/a0n83JKrR/KD1ZO8lOiuPGr/b1HN9+c8f9SJPKP9oGfnUf2R/v1roIADDJdw++0NXHj3X52xe1LkXS+dXjPqd2mlCA40wupdQrnlu7SC7Sv3dm6gAAAAzA7lcAwMVT+A0Uhzmv3amVeJdqhdEIdQCAqoj336xecIl2K3hRPjrlOOdY69Dd9io/1weTsPwKAABgAEIdAACAAQh1AAAABiDUAQAAGIBQBwAAYABCHQAAgAEIdQAAAAYg1AEAABiAUAcAAGAAQh0AAIABCHUAAAAGINQBAAAYgFAHAABgAEIdAACAAQh1AAAABiDUAQAAGIBQBwAAYABCHQAAgAEIdQAAAAYg1AEAABiAUAcAAGAAQh0A4PQGp5TMrCo+WOtCzlhsQemNKUVqXUdVjWkxk9JirNZ1VGpA8Y13qd7zc6XWBQAAgFoa1b3AaK2LQBUwUwcAOGSmbUyLZa+5Mzpp709yZuCQzvbP/ERmVn0zXF6/sSklC/1tTClS1v/eWtzZmXTZ+ZVw2/lrLa+lUM+CJr2vJpd842RSSi+NuQdiC0r3NUlWSMO+8xVbKDt/73UnZ6aK11XJ7NLkUkqLM4V7U7gPx1z/oO9eZhY0WTajWMn3o3T85ONX+/vp9Tfjv6+F+z2g+EZUYUtq7jvqZ/D9RKgDAEjTK0o7loJdvjfJWIeanW19My25b7Q9stdiCgbaFQzMK98ZPcWbqqVwl/TI6ytrhTScuaX8eLuCgXbN7VgKf+aFKe+NPLhVGLtdcy9CGi6ErSMl9M2WI8tuLfZ1p82SLFtt/uvc2dSQ3EDTe21dE944wdmc1NLjBp5ot/u1s66JQLeGJC/oSXOF88fXZfeVBxirs7V4Xfeild2d5k5bTwLtCgZuKjJ93PWPaXEkJBW+N+N53e5rqmygqowvVf/7aSnclve+DzElnSb1Lo1JSihyI6akI2Vn2xXuT5zqOk1DqAMAqBh+2m4VZ0wmrzfJ2VpRXFJk5paanXU9Kr6JjurebE5W5yelGasTyi7fV9zra3NH0s6KItPusaGnOelag1tL7BOF5R9bGro7r2zLrYqe4Ysvb8tp6fDqbJVt5ZTdaVJHYWbqepOyT0e9ftsVvFGoS1J0U9lDex5QvKtJ2Vkv4EnS9H09WpMvwEgqBuMT8EKmpOOvP9ahZuX0pHB8+r6e7JxwvNOM76n297PUn/uzWWyPQ/FMHQBAkht+HnS26s6gFJ8eU0eLo/TX7htvm21JL56Xwo4kbeXlyK7a+E5++8DXI431ktWk4UxKw+UtlK+k4+nnyo+0qmFQUps7KzeRr9eDxgFJrepoyWnz7p4xZ1Y13GkVvz442LXK9pYB0317Dp02VPlrOeb6I431krOtLd+Roac59Xadz/iHObPvJw5FqAMAuKZXlH4Ycpdg29yl15+fdIbprDjrmvDPoJ3IqDZ3enS7a0AR1cvJbyu+3KAHD28pMijZvlmpUpjLaS5wU0PesvNRsrOVL6u+tSOuP1Kl8Pa241+I/iCJ5VcAQFFpCTbuW3qVpK38ActfbbasA3qptvizl+XPwL2Foac5WfYt3WmT0ssJd/bOsnWnq1X5p4Wdn+7zdtnZdgUDviXVQ20r70h249k+rH/c9R90PNJYf27j17o/lBDqAABF8eVtOVZI4RYp/6z0zFO8f0VZK6QHxY0RY1rsa5Kz9viA8OOGnebrpQf5P+08RfyLPvY9KO+JLfh2RFZgKy+nJaSw9VLPpws1Ninc+VKbe2bZSiFtQPGNHjUf2mlCkeWcrM7Pfc+C7d9te2rHXb93/HZhzMEpPSi736f8flTj/p9lfygi1AEASqZXlHYkKbcn7Izqnrfj1f2ICXcn7MG7DxOKfLkup6XHO7dDm7O5UxSVUOTGvLLF/lLejtNKZtP2XFdxqdV7+N7J+55Fc+tW8RqjspfdnZbFQBTd9HZ2ejtco92aWJPCI6lim+DWYfflrK7fPV783oy0Kr/jlLc/1fejCve/qv2537vmPt/HzUCSVPeR/fFurYsAAJN89+ALXX38WJe/fVHrUiRdvHpw9iIzqxpu2+a5tXNwkf59MVMHAABgAHa/AgDeXYNTSo6EjtiwkTvFMmG1lX4bwmHOZSctjEWoAwC8u6bvK3xRPnblWAlFbpzPb0CI999k2fU9xPIrAACAAQh1AAAABiDUAQAAGIBQBwAAYABCHQAAgAEIdQAAAAYg1AEAABiAUAcAAGAAQh0AAIABCHUAAAAGINQBAAAYgFAHAABgAEIdAACAAQh1AAAABiDUAQAAGIBQBwAAYABCHQAAgAEIdQAAAAYg1AEAABiAUAcAAGAAQh0AAIABCHUAAAAGINQBAKpsQPGNlBZjp+hicErJzKrig1Ur6nydsv7IzKrSG1OKVLcqGO5KrQsAAGCf6fsKT9e6iFN41+vHO4mZOgCAFFtQOrOgyeILY1rMlM+2RWZWlZwZcL8YnFIyk1K6+KcwKzWg+EZUYUtq7kuVzvdm74rnl81CjWkxs6D4zGrpWNlM15gWM6uKzyz4xvPXurcer6+KZ7q8/mO+Pva1PU39B7RfGjughtK9/NSuqHCgDKEOACBFN5VVvRoKISTWoWZJdmMplN1pk9LLCTdAjYSUn21XMNCuYCCmpGMp/HBKESUUuRFT0pGys+0K9ydUCHrBrZh3frvmXoQ0XBZsmhS2V9zjN+4rvq9AS+G2vCaK4zWpt9h+TIsjIWnN6388r2CndcIbYCncZ+uJv75icDtt/V7QfTFful/XenzBbkyLmR7Zxfq3ZbectH6AUAcAkCSNanPHUrDLDXGRxno5Ozmp7ZYbbAZvKahtfTMtd2kx0K570ULbhL7Zcg7vOvaJwlrXo/5E8aWhu/PKttwqe+Ys+3T0yAqzy4Ww5I13rcGtLdahZsfX//R9Pdk5waUX+p/t1lChvq/X5VitujNYhfpjnyhs5TR3t3A8ociX63IK7WMdalZOT3z1P1o74n4ChyDUAQAkSVt5R5bdquKs3Nebylu22iRFulqlrZU9M1ClJcPhI2bGIo31khXScNlybY+aq1R3pLFeevG8rLat/ElDkaP8lu/L6efKy5Lddvr6I431kpOXv3u3/8OPx5+9PGH9ABslAACe+PK2Hox0aFKSbb3U5vSonn+WUkdMki2lvy7MVLnLhc2SnLWYgv0JRWZWNdx2ROfOuiYOXFZ9R7zr9eO9wEwdAMA1vaK0U6+GmQ4172xqSO6Ml904pY5r3tKrVFzunAgUnpk7WvzZS8mb8TsL8WcvS0uxnjb75M/U2f4CBxtke7N3p63/wPaDDbKPOB5prH/L0fA+I9QBADwJPX9hKdzZJCe/LckNHFZnSPbepVd/CIktHLn8qujjPRsbdMBu21OIbiprhfTAtzP3dsvJu2nuKu1onfwsJGtnRZFpnb7+fe0HFH+4v//bvvofnHijB0CoAwD4DD3NSXLcXa6StytWyj/zzchFuzW306TewvNlXXlNzOakwsYCbyNDc1/hozsSityYV7alp/RMWp80FyhtTDidUd0bX5c6o27fI7bSa86+5+yOk31hF5+b6722rgn/xoZT1e/tCL5WaO/thN3Tf35v/cAJ1X1kf7xb6yIAwCTfPfhCVx8/1uVvX9S6FEkXr57zEJlZ1bC94gtOR3GfEdSsf0cvUJmL9O+LmToAwLvtgA9O/rTTOvYjUgDTsPsVAPBui3Zr7npKvZmUer2XsoVZN++Dkg9/Qi2nucDmuZQJnDVCHQDgnTd0t/3g59sq/R2sAWb18O5j+RUAAMAAhDoAAAADEOoAAAAMQKgDAAAwAKEOAADAAIQ6AAAAAxDqAAAADECoAwAAMAChDgAAwACEOgAAAAMQ6gAAAAxAqAMAADAAoQ4AAMAAhDoAAAADEOoAAAAMQKgDAAAwAKEOAADAAIQ6AAAAAxDqAAAADECoAwAAMAChDgAAwACEOgAAAAMQ6gAAVTag+EZKi7FTdDE4pWRmVfHBqhVllhPdnzEtZk75/TiFyaWU0ktjtRlcUq2v/zxdqXUBAADsM31f4elaFwG8Wwh1AAAptqB0nzQX6NaQJHd2o0eabde9qHtKZGZVD/SVwv0Jd6ZoJCSr2IGj5PhNRaYHFN+IKmxJ6ksp2Rhzz5fvdUly1jVx477ixbE6lF+rV7jTco99KT0YaVV6/KYi02NazNxSfu2lwp1NXgc5X63aU09OybV6hdu2fWMc49j2x9V/TH0nvf4b9xWPLSjd16SSvX2e0PUFpTNNB4xfjetzf16aC1/uzCt4d9Q3eIcWM6ni8azv52pyKaXb+Xml23q88d2fpeefpdTb4pWzVvg5OqDWPccnl1LqyK/L7gzJkqPk+Er5fSh8r/fV+O5j+RUAIEU3lVW9GgrLebEONUuyGwe8FwZ0p01KL5cCXX62XcFAu4KBmJKOpfDDKUWUUORGTEnHfeP2B7rgVsw7v11zL0IaLluSa1LYXnGPHxjELIXb8poojtek3mL7MS2OhKQ1r//xvIKd1r4eDndc+0rqP6q+t7j+2ILSffVKjhfu8byy8vd5cs0t0px//I0pRap2fT2yC/cvEFPyWo+SMwOl5i31ynvXMrHmqLlvQZP+3jtvSV96Y+9YCo+kdDvv9Tebk9X5iXe+F+hezBdrnVhzZHV+XrYU3dxp60mgXcHATUX8M77+n13DAp1EqAMASJJGtbljKdjlvhFHGuvl7OSktlvuG//gLQW1rW+m5S6NBkozLVJC32w5h3cd+0RhretRcaZFGro7r2zLrbI34uzTo99ks8uFsOeNd63BrS3WoWbH1//0fT3ZOcGlH9e+0voPre8trj/avSeQjGrzJNd0gOxsaWZt6Ot1OVar7gxW6fqsnJ4U2ycUudHum1mTtLNSvJb48rYc/39A7Dk+9DQnyddf2X9wuH37A5nb3x47mwfMaJbCe+ln1ywsvwIAJElbeUe9dquKs3Jfbsoe6VCbpEhXq7T11Z4ZtD1LbofkukhjvWQ1aTiT0nDZEUf5KtQdaayXXmyW1baVd9R7rTrtT1v/qdrvXeZ+62DnKL/l+3L6ufIjIdltVbo+Z1tbx596gnLzx/Y3uVRanj30h8+nua9HkqPkcuLYc99VhDoAgCR3xuPBSIcmJdnWS21Oj+r5Zyl1xCTZUvrrwpthKcw5azEF+xOKzKxquO2Izvc9w/WOOW39J23vC3PZ2XaFo16Iedvxq11fDRXDnLOuicB9xQenlBxpPbadsxbTI32u4YdTiky/G9d6Uiy/AgBc0ytKO/VqmOlQs7d8tZV3ZDdOqeOat/QqFZcrJwJ7ltgOEX/2UrJsHZX5TiP+7GVpKdDTZlf+TN1x7U9b/9u0j3S1ug/yly1zn4Yl21/AYINsb/auFtf39sbU0eK4zxqeMITmnyUU719R1grpgf95P4MQ6gAAnoSev7AU7mySk9+W5L5hW50h2Vsr5W+g/jfx2IKGj9qYEH2858F6t006U/6w/FuLbpa/UQ9O6XbL0U1O1P609b9te1/QjMys+pYa305zl29jxMOQrMJzbFW6vtu+oHS2n03nD6juc3KVR/hR3ZvN7dtYYQpCHQCgyH1I3XF3uUreQ+ruLEdRtFtzO03qzaSUzqSU7sprYjYnFR689x6kb+4rvLEnFLkxr2xLj3t+JrXn41NOa1T3xtelzqjb94it9JojvXhe4UzOce1PW//J28f7v1JSIQ175w/bK5pYc6SWjrcMwo6SW7bXX1RhrWuiuNmgOteXL9y/TEq91/z9V5Mbypr7vDozt5Qfn1dWpU0+x4p2uztsH06Vzc6aoO4j++PdWhcBACb57sEXuvr4sS5/+6LWpUi6ePWch8jMqobtlbf+2IrTtsf74yL9+2KmDgDwbtu3VDimTzutYz8ipWrtgQuC3a8AgHdbtFtz11PqzZR2hxZ/Y8G+33yxl/ubEQ5tf9FVeH3VWebGRUeoAwC884buth8cXCr9HbKHtb/o+B258GH5FQAAwACEOgAAAAMQ6gAAAAxAqAMAADAAoQ4AAMAAhDoAAAADEOoAAAAMQKgDAAAwAKEOAADAAIQ6AAAAAxDqAAAADECoAwAAMAChDgAAwACEOgAAAAMQ6gAAAAxAqAMAADAAoQ4AAMAAhDoAAAADEOoAAAAMQKgDAAAwAKEOAADAAIQ6AAAAAxDqAAAVicysKr0xpUhVehvTYmZV8cGqdFYFF60e4OQIdQAAAAa4UusCAAAXQ2RmVcP2iubUo94W97XsbLvuRQ9pEFtQuq/J90JOc4FuDUnS4JSSI7bSa/UKd1ruYWddEzfuK64xLWZ61CypeSSlxbYjxqjKeMe1P6ye0uuS5KzFFO5PuF944z2ZlXoLfe7MK/h1g5IjIVll/Q8ovhFVcMvX3utbR91f4ISYqQMAlLT06HY+pmCgXcHxddl9KS3GDjgvtqB0X72S4+3uuYF5ZdWk3qUx30lNCtsrpeNWSA9mBiSN6l5gXlk5So6fJNC97XjHtT+oHjd02Wux4vn5zqiShf688XqvbxbvldPSo/SIrSeBdgUDMSWdJt2eGZCU0Ddbjqy2W6Wl61iHmp11/ZxAhyoi1AEASpx1PSrMJk3f15Mdqfn62P7zot0KBm4qMl14YVSbO/s6U/Lr0bLjlt36dnWddryK2pdEZm6p2X8vNKp7szlZnZ9o8qDxpleUdiRn7bE7c1gIct748eVtOVar7njP7E1eb5KztVKaRQSqgFAHACh58bwsaGzlHelaw+GbIwanlMyklM6kiku2Z+q041XYvs229t0LbeXlHNN9/lni4APTK0o7luw2SRpQwzVH6eVDzgXeEqEOAHByhXA0ElJ+1l3SnDti5qvm4513vfu4M3fN18ekwVsKalvfTB/fCjgJQh0AoGTPrNyBM1aSIl2tsnbmFQycz4P+px3vpO0PnKFss70NEG8nvrwtp6VD8a5WiaVXnAFCHQCgxArp08LGiMEp3W7xP6e2hy/0RGZWz3759bTjnaB9vH+lfKOFxrTY1+R7Zu4tTK8o7TQp3CmWXnEmCHUAgBInJ3W5z5y5S5X+zQUl8f6vlFRIw97zacP2iibWHKmlw7eR4Cij2tyxFB5J7dlRerDTjnd8+731uDti851R9154O2FLH0nyNtwlWDksveJs1H1kf7xb6yIAwCTfPfhCVx8/1uVvX9S6FEmV1xOZWdVw23b5Z7uhqiIzq3qgr04ZDnGRXKR/78zUAQBwLgZ0p42lV5wdfqMEAKC29v2mhz32/maId5F3jc5aTGGWXnFGCHUAAElSvP9mbYJTtFtB03+zwvtwjag5ll8BAAAMQKgDAAAwAKEOAADAAIQ6AAAAAxDqAAAADECoAwAAMAChDgAAwACEOgAAAAMQ6gAAAAxAqAMAADAAoQ4AAMAAhDoAAAADEOoAAAAMQKgDAAAwAKEOAADAAIQ6AAAAAxDqAAAADECoAwAAMAChDgAAwACEOgAAAAMQ6gAAAAxAqAMAADAAoQ4AcPYGp5TMrCo+KEljWsyktBirrOlJ16jiAAAO2klEQVTkUkrppbFDj0dmVo88DrwvrtS6AADA+2ZU9wKjtS4CMA4zdQAAjzuDli788c9+lc20ucpm0AanlMwsKD6zWmq/MaXIEeOUZuoGFN8ojbs4s38sqaOstkLbyMyqhjstqaXniPGA9wOhDgAgN1j1yF6LKRhoVzAQU/Jaj5IzAyfoo0lhe8VrP6+sFdKDCtpPLkUV1romvHHzbSFZe09qqVd+vF3BQLsm1hw19y1oUlK8/6Ym1hxpZ17BG/cVP0G1gGkIdQCAAyQUudGucH/iBG0cJb8uLKuOanNHsuzWY9qMqaPFUfLLQiBLKLKc23/azooi0+5f48vbclSvhsH9pwHvM0IdAECFMGV1Ro9ZOq2ywQbZeqnn077XtvJyzmNswDCEOgCAK9rtLp2Or8uxQhre+1wdgAuNUAcAKDd9X+FAu4KzOamlQ5NnOtZz5fcupbbZ+5+pA3AsQh0AQIUdqP6NEZPXm6SdTQ1JXviyFOzyjg9O6XZLNcYd1eaOpfDDwnLvgOJdTdXoGHjvEOoAAJISiny5LhWeqcuk1HttXRN3Sxsf7s36nrl7KD1Zq86Tb0N3Y0rKW+7NRGVvrcvZ+5zdEeLL23JaepTOLJztrCJwwdV9ZH+8W+siAMAk3z34QlcfP9blb1/UuhRJF6+eYw1OKTli60mg250lBC6wi/Tvi5k6AEAN7f+VYZOfhWQVln0BVIxfEwYAqKFR3ZvtULovpXSf99LOvIJ3+TViwEkR6gAAtRXtVjBa6yKAdx/LrwAAAAYg1AEAABiAUAcAAGAAQh0AAIABCHUAAAAGINQBAAAYgFAHAABgAEIdAACAAQh1AAAABiDUAQAAGIBQBwAAYABCHQAAgAEIdQAAAAYg1AEAABiAUAcAAGAAQh0AAIABCHUAAAAGINQBAAAYgFAHAABgAEIdAACAAQh1AAAABiDUAQAAGIBQBwCQJEVmVpXemFLkTEcZ02ImpcXYeY4JvB+u1LoAAMD7K95/U/FaFwEYglAHAPCx9elGSsOW+5WzFlO4P1E8OrmUUm+L7/SdeQXvjkpyZ90eaFv5zpCaJWVn23Uv6r4+3Ol1uJNT1tc8MrOq4bZtTdy4L82satjeVvJaSOFDxldsQem+puKXhTEOri+nuUC3hio4dqQ9Yxb4ayu7xgPGvZ1fL96Xg+oub+8oOX5TkelKigNKWH4FAJRYTdJyu4KBdgVnc7I6P1d80D00uZRS77V1TQRKx9XSU1xKlSSrs1X5cfd4KdC91JzXZk5NxWBzoJaQ7EPGd8OVin0Fx9dl960Wj0dmVsvqm1irV6+3tHvUsWNFu93xim0dSTk9KQt0pWucWKtXb2ZBk/7b6rsvE2uOmvtKx4vBtnhfXyo8Ut4eqAShDgBQ4qzr54UZpOimsrJkt7lfDt1tV/DG/dJyaXSzbNbNbb+tb4ozTAO602bJWXtcnLUauju/v01F4w8o3tWk7Kxvdm36vh6tSeHPxg7sKt5/s7zeCo8daXBKDzql5HihjjF92mmV1RXv/0pJp0m3ZwZK7XZWijNv8eVtOapXw2ChvZT80n9fuzW3s6c9UAFCHQDgRCIzq0pnUkpneo6edVOrbEvKP/Mtn2pbeedtRnX7au5LeWO7f0pLllK8f0VZK6ThTErpTGkG77hjlRvT4khIWvuqtDQ62CBbjvJb/vMSev6iwi4HG2TLUnik/LrKlriBCvFMHQCgIqXnvnKaC9zUkMa0mOk51xr2PotWblT3AqOSBhTfiLpBaaTwfNtRxyoxoPhGj5p35hX0P+NXFTxDh+pgpg4AUAF3KTU7265gxUHInZWzG/3LiO6M28kd1NdhEorcaFcwMK+smtQRq/TY4SIznyts5TTnbQopmn6uvG+J2jWghmuV9Xtwe+DtEOoAABUrhSpv5urIsxOKLOdkdX5SfOh/cum4Nsf15ds4oQHFN1JKes+e7fvMu1iHmpXTZvToY8eKLWi47Dk6v1H9fN/GBzcAPqloRm9/+72f5QdUiuVXAEAFEop8eUvJkajSGTcJZWdjSnZFFb4+Jmn04GbRbk00rmo4k1KvJGdtXdmW0NuVUOhrJKX0iPuS/2NF4v1f6c5GVMOZlIbdo0qO33SD2FHHjjF53f04k7BvXEnFj3OJ9990P47Fu8YTfVyK3E0bbUsp9RbbH7fMDBys7iP7491aFwEAJvnuwRe6+vixLn9b6dPyZ+ui1QOY5CL9+2L5FQAAwAAsvwIA3l+DU0qOhHT43o2TLaUCtUSoAwC8v6bvK8xHicAQLL8CAAAYgFAHAABgAEIdAACAAQh1AAAABiDUAQAAGIBQBwAAYABCHQAAgAEIdQAAAAYg1AEAABiAUAcAAGAAQh0AAIABCHUAAAAGINQBAAAYgFAHAABgAEIdAACAAQh1AAAABiDUAQAAGIBQBwAAYABCHQAAgAEIdQAAAAYg1AEAABiAUAcAAGAAQh0A4BBjWsyktBir9PwBxTdSSmdSSmcWNHna4QenlMysKj5YqKXw95O2Bd4PV2pdAADAEIO3FLRymgt0a6jWtUzfV3i61kUA54uZOgBAUWRm1ZtpSym91LH/hNhC6bh/Fi+2oPRISJaa1JtJKTkzIEmaXEqVnZ9eGisfa2NKkeIrh80Mjmkx06NmWQqPVDhzeNAsX2xKyUIdG1OKeOO5te2Z1Rv0nXvs8QXF912Lf9YytecYcDYIdQAASW7IGu58qblAu4KBds2pSc3+E2ILSvepeDw4vi67zws70W4Fx9flKKe5QLvC/QlNLqXUe21dE4XzZ3NSS88JlnMLRnUvMK+sHCXH23Uv+jZXZyncJT0KtCsYmFfWCmk4c0v5ce9adyyFP/MC5+CUkiMh5We9ugMxJR1L4YeFYDamxZGQtBbz7kNewU7LN9aA4htRBbe844F2zb0IadgXaIGzQKgDAEga0J02S87a4+LS6dDdeWV9x+NdTcrO+pZWp+/r0ZpKYWiPobvtCt64r3jhheimr7/zl10u1DKqzR1JOyuKeEu0Q09z0rUGN7RN31c44A+PCX2z5ZQ6inWo2VnXo/6E+/X0fT3Z8Q0U+0Rh+Y7Lu5ctt3jGD2eKZ+oAAJJaZVtS/lnC99q28o5k+44396WU7tvTdEdHcmcASzNZtQx2fk5++5gzCsu+hQbu/0Qa66UXm6WwKmkr76j3mu+41aThTErD5SMqX4W6gcMQ6gAAFcvOVr78WQpzOc0FbmrIC0kXXynMOWsxBfsT7rW0naALZ10T/llK4Byw/AoAVbb7+rV0+XKtyzghb1auccD3mjs7d/jxo7jLudnZdgUvwm7Yk/CWVye8ZwP3ij97WVqq9bSVbpR73LJ1kgyId9Ou9++87teva1yJi1AHAFVW9+qVdq9erXUZJ5RQZDknq/OT4ufLTS75lh6Lxz/3PRfm7vAs7HQ9SCkEDii+0VO28cINP6264/UXmblVvjGjlvyhLLZQtnys6KayVkgPCtc9OKXbLb620cdKOk3q9W+MiC1U57P7cKHsXv3Q/curV7UtxEOoA4Bq++GV9MG7FuokRbs1sVavXu9jOG7n18uff4t2a2JNCo8UPqrD3eF50GyWlFDky3WpM1o8116OKelIzdfHiv3N7VjF/h5oRUnngK4kuZsb3HOPCpFVEe3W3E5T8T6ku/KamM35Auio7o37rm3EVnrNkV4895ZbE4rcmFe2paf0kSZ9uhif34eq2v3Q/Xde9+r7GlfiqvvI/ni31kUAgEl+1fdHuvyLX+iD1J/XuhRJ0ncPvtDVx491+dsXtS7FWJGZVQ3bKwreHa11KThHP/7Wv9T3/6Fb/+yP/7jWpUhipg4Aqu7S3/+99LN/XusycFb2LaWO6dNOS9mnBLr3zZuf/UyX/v7val1GEbtfAaDKLv31X+v17/5urcswV2xB6b6mw4+f9c7TaLfmrqfUm0mp13vpJLuCYY43DQ26/Mtf1rqMIkIdAFTZ5b/6pX79B3+g3d/4UHW/uhjP2hgl2q1gjQPU0N12no+Dfmxs1E/+7L/Xuowill8BoMou/d3fqe5v/1avf7u11qUAOCOvGxqkD36iK3/xF7UupYhQBwBn4Mrmpl7/6+vSJf5vFjDR69+7oSv/e0t1P/xQ61KK+H8bADgDV9Lb2v3gA73+7d+udSkAquxN/T/Xjx9/rCtPN2tdShlCHQCcgboff9QH/+3P9MPv/xu9sX5a63IAVMnuT36iV3/4h7ry9KkuOYd+sGJNEOoA4IxcSad1+f/8X736j9168+E7+GHEAMpduqRX//7fqe71a139H/+z1tXsQ6gDgDP0wZ/+qfTjG73q69Obn/2s1uUAeEu7H36oX/1Rr3av/aY++JM/kd68qXVJ+xDqAOAM1f34oz78r/Oq+3//qO//83/S644O7V79oNZlAajQ7uXLet0W1K8++1T6yQe6+l9mdekf/6nWZR2Iz6kDgDNW9/2v9OHCgl53dOiH37sh/dvf1+Vf/EKX//IvdemvfqlL//APtS4RgM/ub/yGfmz4Lb35+GNvs9OurqT+XD9ZS6ruxx9rXd6h+N2vAHDOXv+rgF7/zu/oTWOj+8KvvtOlFy9V98Mr1X3/veq+/76qSzu/Dod1+X/9uS7903dV6xMwRl2ddq9+qN0Pr0ofXtWbn1ra9R6VuPTtt7qcTuvKVlp1v/51jQs9HqEOAGrox9/8Tb356F9o96c/dZdlP7iq3atX+Xw74LzsvlHdqx+kH35Q3atXqvun73Tpb/5Gl779VnWvX9e6uhMh1AEAABiA/xQEAAAwAKEOAADAAIQ6AAAAAxDqAAAADECoAwAAMAChDgAAwACEOgAAAAMQ6gAAAAxAqAMAADAAoQ4AAMAAhDoAAAADEOoAAAAMQKgDAAAwAKEOAADAAIQ6AAAAAxDqAAAADECoAwAAMAChDgAAwACEOgAAAAMQ6gAAAAxAqAMAADAAoQ4AAMAAhDoAAAADEOoAAAAMQKgDAAAwAKEOAADAAIQ6AAAAAxDqAAAADECoAwAAMAChDgAAwACEOgAAAAMQ6gAAAAxAqAMAADAAoQ4AAMAAhDoAAAAD/H9MNIn9/jhcEwAAAABJRU5ErkJggg==;" vertex="1" parent="1">
                    <mxGeometry x="100" y="20" width="629" height="739" as="geometry"/>
                </mxCell>
            </root>
        </mxGraphModel>
    </diagram>
</mxfile>